<mxfile host="65bd71144e">
    <diagram id="9aCoWLY6iD81SBP5ZaNU" name="Page-1">
        <mxGraphModel dx="1063" dy="624" grid="0" gridSize="10" guides="1" tooltips="1" connect="1" arrows="1" fold="1" page="1" pageScale="1" pageWidth="1169" pageHeight="827" background="#FFFFFF" math="0" shadow="0">
            <root>
                <mxCell id="0"/>
                <mxCell id="1" parent="0"/>
                <mxCell id="4" value="" style="group" vertex="1" connectable="0" parent="1">
                    <mxGeometry x="410" y="150" width="240" height="110" as="geometry"/>
                </mxCell>
                <mxCell id="2" value="" style="verticalLabelPosition=bottom;verticalAlign=top;html=1;shape=mxgraph.basic.patternFillRect;fillStyle=hor;step=5;fillStrokeWidth=0.2;fillStrokeColor=#dddddd;fontFamily=Courier New;whiteSpace=wrap;fontColor=#000000;movable=1;resizable=1;rotatable=1;deletable=1;editable=1;connectable=1;" vertex="1" parent="4">
                    <mxGeometry width="240" height="110" as="geometry"/>
                </mxCell>
                <mxCell id="3" value="&lt;h1 style=&quot;line-height: 20%;&quot;&gt;&lt;font face=&quot;Times New Roman&quot; style=&quot;font-size: 18px;&quot;&gt;Users&lt;/font&gt;&lt;/h1&gt;&lt;p&gt;&lt;font face=&quot;Times New Roman&quot;&gt;UserId, firstName, lastName, nickName_o, age, gender, email, passwordhash,&amp;nbsp;&lt;/font&gt;&lt;span style=&quot;color: rgb(0, 0, 255); font-family: &amp;quot;Times New Roman&amp;quot;; background-color: initial;&quot;&gt;Avatar, Image_o, About_Me_o.&lt;/span&gt;&lt;/p&gt;" style="text;html=1;strokeColor=none;fillColor=none;spacing=5;spacingTop=-20;whiteSpace=wrap;overflow=hidden;rounded=0;fontFamily=Courier New;fontColor=#000000;" vertex="1" parent="4">
                    <mxGeometry x="10" y="10" width="220" height="80" as="geometry"/>
                </mxCell>
                <mxCell id="6" value="" style="group" vertex="1" connectable="0" parent="1">
                    <mxGeometry x="700" y="150" width="240" height="110" as="geometry"/>
                </mxCell>
                <mxCell id="7" value="" style="verticalLabelPosition=bottom;verticalAlign=top;html=1;shape=mxgraph.basic.patternFillRect;fillStyle=hor;step=5;fillStrokeWidth=0.2;fillStrokeColor=#dddddd;fontFamily=Courier New;whiteSpace=wrap;fontColor=#000000;movable=1;resizable=1;rotatable=1;deletable=1;editable=1;connectable=1;" vertex="1" parent="6">
                    <mxGeometry width="240" height="110" as="geometry"/>
                </mxCell>
                <mxCell id="8" value="&lt;h1 style=&quot;line-height: 20%;&quot;&gt;&lt;font color=&quot;#0000ff&quot; face=&quot;Times New Roman&quot; style=&quot;font-size: 18px;&quot;&gt;Followers&lt;/font&gt;&lt;/h1&gt;&lt;p style=&quot;line-height: 110%;&quot;&gt;&lt;font color=&quot;#0000ff&quot;&gt;&lt;font face=&quot;Times New Roman&quot;&gt;Follower_Id,&amp;nbsp;&lt;/font&gt;&lt;/font&gt;&lt;span style=&quot;font-family: &amp;quot;Times New Roman&amp;quot;; color: rgb(0, 0, 255); background-color: initial;&quot;&gt;Follower_firstName, Follower_lastName, Influencer_Id, Influencer_firstName, Influencer_lastName, accepted, unfollow.&lt;/span&gt;&lt;/p&gt;&lt;span style=&quot;color: rgba(0, 0, 0, 0); font-family: monospace; font-size: 0px;&quot;&gt;%3CmxGraphModel%3E%3Croot%3E%3CmxCell%20id%3D%220%22%2F%3E%3CmxCell%20id%3D%221%22%20parent%3D%220%22%2F%3E%3CmxCell%20id%3D%222%22%20value%3D%22%22%20style%3D%22group%22%20vertex%3D%221%22%20connectable%3D%220%22%20parent%3D%221%22%3E%3CmxGeometry%20x%3D%22410%22%20y%3D%22150%22%20width%3D%22240%22%20height%3D%22110%22%20as%3D%22geometry%22%2F%3E%3C%2FmxCell%3E%3CmxCell%20id%3D%223%22%20value%3D%22%22%20style%3D%22verticalLabelPosition%3Dbottom%3BverticalAlign%3Dtop%3Bhtml%3D1%3Bshape%3Dmxgraph.basic.patternFillRect%3BfillStyle%3Dhor%3Bstep%3D5%3BfillStrokeWidth%3D0.2%3BfillStrokeColor%3D%23dddddd%3BfontFamily%3DCourier%20New%3BwhiteSpace%3Dwrap%3BfontColor%3D%23000000%3Bmovable%3D1%3Bresizable%3D1%3Brotatable%3D1%3Bdeletable%3D1%3Beditable%3D1%3Bconnectable%3D1%3B%22%20vertex%3D%221%22%20parent%3D%222%22%3E%3CmxGeometry%20width%3D%22240%22%20height%3D%22110%22%20as%3D%22geometry%22%2F%3E%3C%2FmxCell%3E%3CmxCell%20id%3D%224%22%20value%3D%22%26lt%3Bh1%20style%3D%26quot%3Bline-height%3A%2020%25%3B%26quot%3B%26gt%3B%26lt%3Bfont%20face%3D%26quot%3BTimes%20New%20Roman%26quot%3B%20style%3D%26quot%3Bfont-size%3A%2018px%3B%26quot%3B%26gt%3BUsers%26lt%3B%2Ffont%26gt%3B%26lt%3B%2Fh1%26gt%3B%26lt%3Bp%26gt%3B%26lt%3Bfont%20face%3D%26quot%3BTimes%20New%20Roman%26quot%3B%26gt%3BUserId%2C%20firstName%2C%20lastName%2C%20nickName_o%2C%20age%2C%20gender%2C%20email%2C%20passwordhash%2C%26amp%3Bnbsp%3B%26lt%3B%2Ffont%26gt%3B%26lt%3Bspan%20style%3D%26quot%3Bcolor%3A%20rgb(0%2C%200%2C%20255)%3B%20font-family%3A%20%26amp%3Bquot%3BTimes%20New%20Roman%26amp%3Bquot%3B%3B%20background-color%3A%20initial%3B%26quot%3B%26gt%3BAvatar%2C%20Image_o%2C%20About_Me_o%26lt%3B%2Fspan%26gt%3B%26lt%3B%2Fp%26gt%3B%22%20style%3D%22text%3Bhtml%3D1%3BstrokeColor%3Dnone%3BfillColor%3Dnone%3Bspacing%3D5%3BspacingTop%3D-20%3BwhiteSpace%3Dwrap%3Boverflow%3Dhidden%3Brounded%3D0%3BfontFamily%3DCourier%20New%3BfontColor%3D%23000000%3B%22%20vertex%3D%221%22%20parent%3D%222%22%3E%3CmxGeometry%20x%3D%2210%22%20y%3D%2210%22%20width%3D%22220%22%20height%3D%2280%22%20as%3D%22geometry%22%2F%3E%3C%2FmxCell%3E%3C%2Froot%3E%3C%2FmxGraphModel%3E&lt;/span&gt;&lt;span style=&quot;color: rgba(0, 0, 0, 0); font-family: monospace; font-size: 0px;&quot;&gt;%3CmxGraphModel%3E%3Croot%3E%3CmxCell%20id%3D%220%22%2F%3E%3CmxCell%20id%3D%221%22%20parent%3D%220%22%2F%3E%3CmxCell%20id%3D%222%22%20value%3D%22%22%20style%3D%22group%22%20vertex%3D%221%22%20connectable%3D%220%22%20parent%3D%221%22%3E%3CmxGeometry%20x%3D%22410%22%20y%3D%22150%22%20width%3D%22240%22%20height%3D%22110%22%20as%3D%22geometry%22%2F%3E%3C%2FmxCell%3E%3CmxCell%20id%3D%223%22%20value%3D%22%22%20style%3D%22verticalLabelPosition%3Dbottom%3BverticalAlign%3Dtop%3Bhtml%3D1%3Bshape%3Dmxgraph.basic.patternFillRect%3BfillStyle%3Dhor%3Bstep%3D5%3BfillStrokeWidth%3D0.2%3BfillStrokeColor%3D%23dddddd%3BfontFamily%3DCourier%20New%3BwhiteSpace%3Dwrap%3BfontColor%3D%23000000%3Bmovable%3D1%3Bresizable%3D1%3Brotatable%3D1%3Bdeletable%3D1%3Beditable%3D1%3Bconnectable%3D1%3B%22%20vertex%3D%221%22%20parent%3D%222%22%3E%3CmxGeometry%20width%3D%22240%22%20height%3D%22110%22%20as%3D%22geometry%22%2F%3E%3C%2FmxCell%3E%3CmxCell%20id%3D%224%22%20value%3D%22%26lt%3Bh1%20style%3D%26quot%3Bline-height%3A%2020%25%3B%26quot%3B%26gt%3B%26lt%3Bfont%20face%3D%26quot%3BTimes%20New%20Roman%26quot%3B%20style%3D%26quot%3Bfont-size%3A%2018px%3B%26quot%3B%26gt%3BUsers%26lt%3B%2Ffont%26gt%3B%26lt%3B%2Fh1%26gt%3B%26lt%3Bp%26gt%3B%26lt%3Bfont%20face%3D%26quot%3BTimes%20New%20Roman%26quot%3B%26gt%3BUserId%2C%20firstName%2C%20lastName%2C%20nickName_o%2C%20age%2C%20gender%2C%20email%2C%20passwordhash%2C%26amp%3Bnbsp%3B%26lt%3B%2Ffont%26gt%3B%26lt%3Bspan%20style%3D%26quot%3Bcolor%3A%20rgb(0%2C%200%2C%20255)%3B%20font-family%3A%20%26amp%3Bquot%3BTimes%20New%20Roman%26amp%3Bquot%3B%3B%20background-color%3A%20initial%3B%26quot%3B%26gt%3BAvatar%2C%20Image_o%2C%20About_Me_o%26lt%3B%2Fspan%26gt%3B%26lt%3B%2Fp%26gt%3B%22%20style%3D%22text%3Bhtml%3D1%3BstrokeColor%3Dnone%3BfillColor%3Dnone%3Bspacing%3D5%3BspacingTop%3D-20%3BwhiteSpace%3Dwrap%3Boverflow%3Dhidden%3Brounded%3D0%3BfontFamily%3DCourier%20New%3BfontColor%3D%23000000%3B%22%20vertex%3D%221%22%20parent%3D%222%22%3E%3CmxGeometry%20x%3D%2210%22%20y%3D%2210%22%20width%3D%22220%22%20height%3D%2280%22%20as%3D%22geometry%22%2F%3E%3C%2FmxCell%3E%3C%2Froot%3E%3C%2FmxGraphModel%3E&lt;/span&gt;" style="text;html=1;strokeColor=none;fillColor=none;spacing=5;spacingTop=-20;whiteSpace=wrap;overflow=hidden;rounded=0;fontFamily=Courier New;fontColor=#000000;" vertex="1" parent="6">
                    <mxGeometry x="10" y="10" width="220" height="80" as="geometry"/>
                </mxCell>
                <mxCell id="9" value="" style="group" vertex="1" connectable="0" parent="1">
                    <mxGeometry x="700" y="280" width="240" height="140" as="geometry"/>
                </mxCell>
                <mxCell id="10" value="" style="verticalLabelPosition=bottom;verticalAlign=top;html=1;shape=mxgraph.basic.patternFillRect;fillStyle=hor;step=5;fillStrokeWidth=0.2;fillStrokeColor=#dddddd;fontFamily=Courier New;whiteSpace=wrap;fontColor=#000000;movable=1;resizable=1;rotatable=1;deletable=1;editable=1;connectable=1;" vertex="1" parent="9">
                    <mxGeometry width="240" height="140" as="geometry"/>
                </mxCell>
                <mxCell id="11" value="&lt;h1 style=&quot;line-height: 90%;&quot;&gt;&lt;font face=&quot;Times New Roman&quot; color=&quot;#0000ff&quot;&gt;&lt;span style=&quot;font-size: 18px;&quot;&gt;Profile&lt;/span&gt;&lt;/font&gt;&lt;/h1&gt;&lt;p style=&quot;line-height: 90%;&quot;&gt;&lt;span style=&quot;font-family: &amp;quot;Times New Roman&amp;quot;; color: rgb(0, 0, 255); background-color: initial;&quot;&gt;User info from Users or from reg. form, User activity: all user's posts,&amp;nbsp; &amp;nbsp; &amp;nbsp; &amp;nbsp; &amp;nbsp; &amp;nbsp; &amp;nbsp; &amp;nbsp; &amp;nbsp;&lt;/span&gt;&lt;span style=&quot;background-color: initial; color: rgb(0, 0, 255); font-family: &amp;quot;Times New Roman&amp;quot;;&quot;&gt;User Followers and&amp;nbsp; User Influencers,&amp;nbsp; &amp;nbsp; &amp;nbsp; &amp;nbsp; &amp;nbsp;Profile type: Public vs. Private,&amp;nbsp; &amp;nbsp; &amp;nbsp; &amp;nbsp; &amp;nbsp; &amp;nbsp; &amp;nbsp; &amp;nbsp; &amp;nbsp; &amp;nbsp; Visibility option.&lt;/span&gt;&lt;/p&gt;&lt;span style=&quot;color: rgba(0, 0, 0, 0); font-family: monospace; font-size: 0px;&quot;&gt;%3CmxGraphModel%3E%3Croot%3E%3CmxCell%20id%3D%220%22%2F%3E%3CmxCell%20id%3D%221%22%20parent%3D%220%22%2F%3E%3CmxCell%20id%3D%222%22%20value%3D%22%22%20style%3D%22group%22%20vertex%3D%221%22%20connectable%3D%220%22%20parent%3D%221%22%3E%3CmxGeometry%20x%3D%22410%22%20y%3D%22150%22%20width%3D%22240%22%20height%3D%22110%22%20as%3D%22geometry%22%2F%3E%3C%2FmxCell%3E%3CmxCell%20id%3D%223%22%20value%3D%22%22%20style%3D%22verticalLabelPosition%3Dbottom%3BverticalAlign%3Dtop%3Bhtml%3D1%3Bshape%3Dmxgraph.basic.patternFillRect%3BfillStyle%3Dhor%3Bstep%3D5%3BfillStrokeWidth%3D0.2%3BfillStrokeColor%3D%23dddddd%3BfontFamily%3DCourier%20New%3BwhiteSpace%3Dwrap%3BfontColor%3D%23000000%3Bmovable%3D1%3Bresizable%3D1%3Brotatable%3D1%3Bdeletable%3D1%3Beditable%3D1%3Bconnectable%3D1%3B%22%20vertex%3D%221%22%20parent%3D%222%22%3E%3CmxGeometry%20width%3D%22240%22%20height%3D%22110%22%20as%3D%22geometry%22%2F%3E%3C%2FmxCell%3E%3CmxCell%20id%3D%224%22%20value%3D%22%26lt%3Bh1%20style%3D%26quot%3Bline-height%3A%2020%25%3B%26quot%3B%26gt%3B%26lt%3Bfont%20face%3D%26quot%3BTimes%20New%20Roman%26quot%3B%20style%3D%26quot%3Bfont-size%3A%2018px%3B%26quot%3B%26gt%3BUsers%26lt%3B%2Ffont%26gt%3B%26lt%3B%2Fh1%26gt%3B%26lt%3Bp%26gt%3B%26lt%3Bfont%20face%3D%26quot%3BTimes%20New%20Roman%26quot%3B%26gt%3BUserId%2C%20firstName%2C%20lastName%2C%20nickName_o%2C%20age%2C%20gender%2C%20email%2C%20passwordhash%2C%26amp%3Bnbsp%3B%26lt%3B%2Ffont%26gt%3B%26lt%3Bspan%20style%3D%26quot%3Bcolor%3A%20rgb(0%2C%200%2C%20255)%3B%20font-family%3A%20%26amp%3Bquot%3BTimes%20New%20Roman%26amp%3Bquot%3B%3B%20background-color%3A%20initial%3B%26quot%3B%26gt%3BAvatar%2C%20Image_o%2C%20About_Me_o%26lt%3B%2Fspan%26gt%3B%26lt%3B%2Fp%26gt%3B%22%20style%3D%22text%3Bhtml%3D1%3BstrokeColor%3Dnone%3BfillColor%3Dnone%3Bspacing%3D5%3BspacingTop%3D-20%3BwhiteSpace%3Dwrap%3Boverflow%3Dhidden%3Brounded%3D0%3BfontFamily%3DCourier%20New%3BfontColor%3D%23000000%3B%22%20vertex%3D%221%22%20parent%3D%222%22%3E%3CmxGeometry%20x%3D%2210%22%20y%3D%2210%22%20width%3D%22220%22%20height%3D%2280%22%20as%3D%22geometry%22%2F%3E%3C%2FmxCell%3E%3C%2Froot%3E%3C%2FmxGraphModel%3E&lt;/span&gt;&lt;span style=&quot;color: rgba(0, 0, 0, 0); font-family: monospace; font-size: 0px;&quot;&gt;%3CmxGraphModel%3E%3Croot%3E%3CmxCell%20id%3D%220%22%2F%3E%3CmxCell%20id%3D%221%22%20parent%3D%220%22%2F%3E%3CmxCell%20id%3D%222%22%20value%3D%22%22%20style%3D%22group%22%20vertex%3D%221%22%20connectable%3D%220%22%20parent%3D%221%22%3E%3CmxGeometry%20x%3D%22410%22%20y%3D%22150%22%20width%3D%22240%22%20height%3D%22110%22%20as%3D%22geometry%22%2F%3E%3C%2FmxCell%3E%3CmxCell%20id%3D%223%22%20value%3D%22%22%20style%3D%22verticalLabelPosition%3Dbottom%3BverticalAlign%3Dtop%3Bhtml%3D1%3Bshape%3Dmxgraph.basic.patternFillRect%3BfillStyle%3Dhor%3Bstep%3D5%3BfillStrokeWidth%3D0.2%3BfillStrokeColor%3D%23dddddd%3BfontFamily%3DCourier%20New%3BwhiteSpace%3Dwrap%3BfontColor%3D%23000000%3Bmovable%3D1%3Bresizable%3D1%3Brotatable%3D1%3Bdeletable%3D1%3Beditable%3D1%3Bconnectable%3D1%3B%22%20vertex%3D%221%22%20parent%3D%222%22%3E%3CmxGeometry%20width%3D%22240%22%20height%3D%22110%22%20as%3D%22geometry%22%2F%3E%3C%2FmxCell%3E%3CmxCell%20id%3D%224%22%20value%3D%22%26lt%3Bh1%20style%3D%26quot%3Bline-height%3A%2020%25%3B%26quot%3B%26gt%3B%26lt%3Bfont%20face%3D%26quot%3BTimes%20New%20Roman%26quot%3B%20style%3D%26quot%3Bfont-size%3A%2018px%3B%26quot%3B%26gt%3BUsers%26lt%3B%2Ffont%26gt%3B%26lt%3B%2Fh1%26gt%3B%26lt%3Bp%26gt%3B%26lt%3Bfont%20face%3D%26quot%3BTimes%20New%20Roman%26quot%3B%26gt%3BUserId%2C%20firstName%2C%20lastName%2C%20nickName_o%2C%20age%2C%20gender%2C%20email%2C%20passwordhash%2C%26amp%3Bnbsp%3B%26lt%3B%2Ffont%26gt%3B%26lt%3Bspan%20style%3D%26quot%3Bcolor%3A%20rgb(0%2C%200%2C%20255)%3B%20font-family%3A%20%26amp%3Bquot%3BTimes%20New%20Roman%26amp%3Bquot%3B%3B%20background-color%3A%20initial%3B%26quot%3B%26gt%3BAvatar%2C%20Image_o%2C%20About_Me_o%26lt%3B%2Fspan%26gt%3B%26lt%3B%2Fp%26gt%3B%22%20style%3D%22text%3Bhtml%3D1%3BstrokeColor%3Dnone%3BfillColor%3Dnone%3Bspacing%3D5%3BspacingTop%3D-20%3BwhiteSpace%3Dwrap%3Boverflow%3Dhidden%3Brounded%3D0%3BfontFamily%3DCourier%20New%3BfontColor%3D%23000000%3B%22%20vertex%3D%221%22%20parent%3D%222%22%3E%3CmxGeometry%20x%3D%2210%22%20y%3D%2210%22%20width%3D%22220%22%20height%3D%2280%22%20as%3D%22geometry%22%2F%3E%3C%2FmxCell%3E%3C%2Froot%3E%3C%2FmxGraphModel%3E&lt;/span&gt;" style="text;html=1;strokeColor=none;fillColor=none;spacing=5;spacingTop=-20;whiteSpace=wrap;overflow=hidden;rounded=0;fontFamily=Courier New;fontColor=#000000;" vertex="1" parent="9">
                    <mxGeometry x="10" y="12.73" width="220" height="117.27" as="geometry"/>
                </mxCell>
                <mxCell id="12" value="" style="group" vertex="1" connectable="0" parent="1">
                    <mxGeometry x="130" y="150" width="240" height="120" as="geometry"/>
                </mxCell>
                <mxCell id="13" value="" style="verticalLabelPosition=bottom;verticalAlign=top;html=1;shape=mxgraph.basic.patternFillRect;fillStyle=hor;step=5;fillStrokeWidth=0.2;fillStrokeColor=#dddddd;fontFamily=Courier New;whiteSpace=wrap;fontColor=#000000;movable=1;resizable=1;rotatable=1;deletable=1;editable=1;connectable=1;" vertex="1" parent="12">
                    <mxGeometry width="240" height="119.99999999999999" as="geometry"/>
                </mxCell>
                <mxCell id="14" value="&lt;h1 style=&quot;line-height: 20%;&quot;&gt;&lt;font face=&quot;Times New Roman&quot; style=&quot;font-size: 18px;&quot;&gt;Posts&lt;/font&gt;&lt;/h1&gt;&lt;p&gt;&lt;font face=&quot;Times New Roman&quot;&gt;PostId, AuthorId, Author_firstName, Author_lastName, pTitle, pContent, pCategory, pCreationDate, pCookieID,&amp;nbsp; &amp;nbsp; &amp;nbsp; &amp;nbsp; &lt;/font&gt;&lt;span style=&quot;color: rgb(0, 0, 255); font-family: &amp;quot;Times New Roman&amp;quot;; background-color: initial;&quot;&gt;Post_Visibility (Public, private., almostPri.)&lt;/span&gt;&lt;/p&gt;" style="text;html=1;strokeColor=none;fillColor=none;spacing=5;spacingTop=-20;whiteSpace=wrap;overflow=hidden;rounded=0;fontFamily=Courier New;fontColor=#000000;" vertex="1" parent="12">
                    <mxGeometry x="10" y="10.909090909090908" width="220" height="87.27272727272727" as="geometry"/>
                </mxCell>
                <mxCell id="15" value="" style="group" vertex="1" connectable="0" parent="1">
                    <mxGeometry x="130" y="290" width="240" height="110" as="geometry"/>
                </mxCell>
                <mxCell id="16" value="" style="verticalLabelPosition=bottom;verticalAlign=top;html=1;shape=mxgraph.basic.patternFillRect;fillStyle=hor;step=5;fillStrokeWidth=0.2;fillStrokeColor=#dddddd;fontFamily=Courier New;whiteSpace=wrap;fontColor=#000000;movable=1;resizable=1;rotatable=1;deletable=1;editable=1;connectable=1;" vertex="1" parent="15">
                    <mxGeometry width="240" height="110" as="geometry"/>
                </mxCell>
                <mxCell id="17" value="&lt;h1 style=&quot;line-height: 20%;&quot;&gt;&lt;font face=&quot;Times New Roman&quot; style=&quot;font-size: 18px;&quot;&gt;Comments&lt;/font&gt;&lt;/h1&gt;&lt;p&gt;&lt;span style=&quot;font-family: &amp;quot;Times New Roman&amp;quot;;&quot;&gt;CommentID, PostId, AuthorId, Author_firstName, Author_lastName, cContent, cCreationDate.&lt;/span&gt;&lt;br&gt;&lt;/p&gt;" style="text;html=1;strokeColor=none;fillColor=none;spacing=5;spacingTop=-20;whiteSpace=wrap;overflow=hidden;rounded=0;fontFamily=Courier New;fontColor=#000000;" vertex="1" parent="15">
                    <mxGeometry x="10" y="10" width="220" height="80" as="geometry"/>
                </mxCell>
                <mxCell id="18" value="" style="group" vertex="1" connectable="0" parent="1">
                    <mxGeometry x="130" y="420" width="240" height="60" as="geometry"/>
                </mxCell>
                <mxCell id="19" value="" style="verticalLabelPosition=bottom;verticalAlign=top;html=1;shape=mxgraph.basic.patternFillRect;fillStyle=hor;step=5;fillStrokeWidth=0.2;fillStrokeColor=#dddddd;fontFamily=Courier New;whiteSpace=wrap;fontColor=#000000;movable=1;resizable=1;rotatable=1;deletable=1;editable=1;connectable=1;" vertex="1" parent="18">
                    <mxGeometry width="240" height="60" as="geometry"/>
                </mxCell>
                <mxCell id="20" value="&lt;h1 style=&quot;line-height: 20%;&quot;&gt;&lt;font face=&quot;Times New Roman&quot; style=&quot;font-size: 18px;&quot;&gt;Category&lt;/font&gt;&lt;/h1&gt;&lt;p&gt;&lt;span style=&quot;font-family: &amp;quot;Times New Roman&amp;quot;;&quot;&gt;PostId, Category&lt;/span&gt;&lt;br&gt;&lt;/p&gt;" style="text;html=1;strokeColor=none;fillColor=none;spacing=5;spacingTop=-20;whiteSpace=wrap;overflow=hidden;rounded=0;fontFamily=Courier New;fontColor=#000000;" vertex="1" parent="18">
                    <mxGeometry x="10" y="5.454545454545455" width="220" height="43.63636363636364" as="geometry"/>
                </mxCell>
                <mxCell id="24" value="" style="group" vertex="1" connectable="0" parent="1">
                    <mxGeometry x="130" y="500" width="240" height="120" as="geometry"/>
                </mxCell>
                <mxCell id="25" value="" style="verticalLabelPosition=bottom;verticalAlign=top;html=1;shape=mxgraph.basic.patternFillRect;fillStyle=hor;step=5;fillStrokeWidth=0.2;fillStrokeColor=#dddddd;fontFamily=Courier New;whiteSpace=wrap;fontColor=#000000;movable=1;resizable=1;rotatable=1;deletable=1;editable=1;connectable=1;" vertex="1" parent="24">
                    <mxGeometry width="240" height="119.99999999999999" as="geometry"/>
                </mxCell>
                <mxCell id="26" value="&lt;h1 style=&quot;line-height: 20%;&quot;&gt;&lt;font face=&quot;Times New Roman&quot; style=&quot;font-size: 18px;&quot;&gt;Notifications&lt;/font&gt;&lt;/h1&gt;&lt;p&gt;&lt;font face=&quot;Times New Roman&quot;&gt;NotificationId, Sender, Recipient, Count,&amp;nbsp; &amp;nbsp; &amp;nbsp;&lt;font color=&quot;#0000ff&quot;&gt;followingRequest, joinGroupRequest, groupInvite, groupEvent.&lt;/font&gt;&lt;/font&gt;&lt;/p&gt;" style="text;html=1;strokeColor=none;fillColor=none;spacing=5;spacingTop=-20;whiteSpace=wrap;overflow=hidden;rounded=0;fontFamily=Courier New;fontColor=#000000;" vertex="1" parent="24">
                    <mxGeometry x="10" y="10.909090909090908" width="220" height="87.27272727272727" as="geometry"/>
                </mxCell>
                <mxCell id="28" value="" style="group" vertex="1" connectable="0" parent="1">
                    <mxGeometry x="130" y="640" width="240" height="120" as="geometry"/>
                </mxCell>
                <mxCell id="29" value="" style="verticalLabelPosition=bottom;verticalAlign=top;html=1;shape=mxgraph.basic.patternFillRect;fillStyle=hor;step=5;fillStrokeWidth=0.2;fillStrokeColor=#dddddd;fontFamily=Courier New;whiteSpace=wrap;fontColor=#000000;movable=1;resizable=1;rotatable=1;deletable=1;editable=1;connectable=1;" vertex="1" parent="28">
                    <mxGeometry width="240" height="80" as="geometry"/>
                </mxCell>
                <mxCell id="30" value="&lt;h1 style=&quot;line-height: 20%;&quot;&gt;&lt;font face=&quot;Times New Roman&quot;&gt;&lt;span style=&quot;font-size: 18px;&quot;&gt;Chats&lt;/span&gt;&lt;/font&gt;&lt;/h1&gt;&lt;p&gt;&lt;font face=&quot;Times New Roman&quot;&gt;ChatId, cSender, creationDate,&amp;nbsp; &lt;font color=&quot;#0000ff&quot;&gt;foFollower,&lt;/font&gt;&amp;nbsp;&lt;font color=&quot;#0000ff&quot;&gt;toPublic, toInfluencer.&lt;/font&gt;&lt;/font&gt;&lt;/p&gt;" style="text;html=1;strokeColor=none;fillColor=none;spacing=5;spacingTop=-20;whiteSpace=wrap;overflow=hidden;rounded=0;fontFamily=Courier New;fontColor=#000000;" vertex="1" parent="28">
                    <mxGeometry x="10" y="10.909090909090908" width="220" height="87.27272727272727" as="geometry"/>
                </mxCell>
                <mxCell id="31" value="" style="group" vertex="1" connectable="0" parent="1">
                    <mxGeometry x="130" y="740" width="240" height="120" as="geometry"/>
                </mxCell>
                <mxCell id="32" value="" style="verticalLabelPosition=bottom;verticalAlign=top;html=1;shape=mxgraph.basic.patternFillRect;fillStyle=hor;step=5;fillStrokeWidth=0.2;fillStrokeColor=#dddddd;fontFamily=Courier New;whiteSpace=wrap;fontColor=#000000;movable=1;resizable=1;rotatable=1;deletable=1;editable=1;connectable=1;" vertex="1" parent="31">
                    <mxGeometry width="240" height="80" as="geometry"/>
                </mxCell>
                <mxCell id="33" value="&lt;h1 style=&quot;line-height: 20%;&quot;&gt;&lt;font face=&quot;Times New Roman&quot;&gt;&lt;span style=&quot;font-size: 18px;&quot;&gt;MessageHistory&lt;/span&gt;&lt;/font&gt;&lt;/h1&gt;&lt;p&gt;&lt;font face=&quot;Times New Roman&quot;&gt;MessageId, ChatId, chatMessage, Sender, Recipient, creationDate,&amp;nbsp; &lt;font color=&quot;#0000ff&quot;&gt;emoji.&lt;/font&gt;&lt;/font&gt;&lt;/p&gt;" style="text;html=1;strokeColor=none;fillColor=none;spacing=5;spacingTop=-20;whiteSpace=wrap;overflow=hidden;rounded=0;fontFamily=Courier New;fontColor=#000000;" vertex="1" parent="31">
                    <mxGeometry x="10" y="10.91" width="220" height="89.09" as="geometry"/>
                </mxCell>
                <mxCell id="34" value="" style="group" vertex="1" connectable="0" parent="1">
                    <mxGeometry x="700" y="440" width="240" height="90" as="geometry"/>
                </mxCell>
                <mxCell id="35" value="" style="verticalLabelPosition=bottom;verticalAlign=top;html=1;shape=mxgraph.basic.patternFillRect;fillStyle=hor;step=5;fillStrokeWidth=0.2;fillStrokeColor=#dddddd;fontFamily=Courier New;whiteSpace=wrap;fontColor=#000000;movable=1;resizable=1;rotatable=1;deletable=1;editable=1;connectable=1;" vertex="1" parent="34">
                    <mxGeometry width="240" height="60" as="geometry"/>
                </mxCell>
                <mxCell id="36" value="&lt;h1 style=&quot;line-height: 20%;&quot;&gt;&lt;font face=&quot;Times New Roman&quot;&gt;&lt;span style=&quot;font-size: 18px;&quot;&gt;Sessions&lt;/span&gt;&lt;/font&gt;&lt;/h1&gt;&lt;p&gt;&lt;font face=&quot;Times New Roman&quot;&gt;userId, cookieName, cookieValue&lt;font color=&quot;#0000ff&quot;&gt;.&lt;/font&gt;&lt;/font&gt;&lt;/p&gt;" style="text;html=1;strokeColor=none;fillColor=none;spacing=5;spacingTop=-20;whiteSpace=wrap;overflow=hidden;rounded=0;fontFamily=Courier New;fontColor=#000000;" vertex="1" parent="34">
                    <mxGeometry x="10" y="8.177142857142858" width="220" height="68.96571428571428" as="geometry"/>
                </mxCell>
                <mxCell id="39" value="Social-Network" style="text;html=1;strokeColor=none;fillColor=none;align=center;verticalAlign=middle;whiteSpace=wrap;rounded=0;fontFamily=Times New Roman;fontSize=31;fontColor=#000000;" vertex="1" parent="1">
                    <mxGeometry x="400" y="30" width="260" height="30" as="geometry"/>
                </mxCell>
                <mxCell id="40" value="Database Tables And Fields" style="text;html=1;strokeColor=none;fillColor=none;align=center;verticalAlign=middle;whiteSpace=wrap;rounded=0;fontFamily=Times New Roman;fontSize=21;fontColor=#000000;" vertex="1" parent="1">
                    <mxGeometry x="380" y="80" width="300" height="30" as="geometry"/>
                </mxCell>
                <mxCell id="41" value="" style="group;strokeColor=#0000CC;rounded=0;align=left;" vertex="1" connectable="0" parent="1">
                    <mxGeometry x="410" y="280" width="240" height="90" as="geometry"/>
                </mxCell>
                <mxCell id="42" value="" style="verticalLabelPosition=bottom;verticalAlign=top;html=1;shape=mxgraph.basic.patternFillRect;fillStyle=hor;step=5;fillStrokeWidth=0.2;fillStrokeColor=#dddddd;fontFamily=Courier New;whiteSpace=wrap;fontColor=#000000;movable=1;resizable=1;rotatable=1;deletable=1;editable=1;connectable=1;" vertex="1" parent="41">
                    <mxGeometry width="240" height="90" as="geometry"/>
                </mxCell>
                <mxCell id="43" value="&lt;h1 style=&quot;line-height: 20%;&quot;&gt;&lt;font color=&quot;#0000ff&quot; face=&quot;Times New Roman&quot; style=&quot;font-size: 18px;&quot;&gt;Groups&lt;/font&gt;&lt;/h1&gt;&lt;p style=&quot;line-height: 110%;&quot;&gt;&lt;font face=&quot;Times New Roman&quot; color=&quot;#0000ff&quot;&gt;groupId, groupTitle, Description, groupMember, memberAcceptedInvite, creatorAcceptedRequest.&lt;/font&gt;&lt;/p&gt;&lt;span style=&quot;color: rgba(0, 0, 0, 0); font-family: monospace; font-size: 0px;&quot;&gt;%3CmxGraphModel%3E%3Croot%3E%3CmxCell%20id%3D%220%22%2F%3E%3CmxCell%20id%3D%221%22%20parent%3D%220%22%2F%3E%3CmxCell%20id%3D%222%22%20value%3D%22%22%20style%3D%22group%22%20vertex%3D%221%22%20connectable%3D%220%22%20parent%3D%221%22%3E%3CmxGeometry%20x%3D%22410%22%20y%3D%22150%22%20width%3D%22240%22%20height%3D%22110%22%20as%3D%22geometry%22%2F%3E%3C%2FmxCell%3E%3CmxCell%20id%3D%223%22%20value%3D%22%22%20style%3D%22verticalLabelPosition%3Dbottom%3BverticalAlign%3Dtop%3Bhtml%3D1%3Bshape%3Dmxgraph.basic.patternFillRect%3BfillStyle%3Dhor%3Bstep%3D5%3BfillStrokeWidth%3D0.2%3BfillStrokeColor%3D%23dddddd%3BfontFamily%3DCourier%20New%3BwhiteSpace%3Dwrap%3BfontColor%3D%23000000%3Bmovable%3D1%3Bresizable%3D1%3Brotatable%3D1%3Bdeletable%3D1%3Beditable%3D1%3Bconnectable%3D1%3B%22%20vertex%3D%221%22%20parent%3D%222%22%3E%3CmxGeometry%20width%3D%22240%22%20height%3D%22110%22%20as%3D%22geometry%22%2F%3E%3C%2FmxCell%3E%3CmxCell%20id%3D%224%22%20value%3D%22%26lt%3Bh1%20style%3D%26quot%3Bline-height%3A%2020%25%3B%26quot%3B%26gt%3B%26lt%3Bfont%20face%3D%26quot%3BTimes%20New%20Roman%26quot%3B%20style%3D%26quot%3Bfont-size%3A%2018px%3B%26quot%3B%26gt%3BUsers%26lt%3B%2Ffont%26gt%3B%26lt%3B%2Fh1%26gt%3B%26lt%3Bp%26gt%3B%26lt%3Bfont%20face%3D%26quot%3BTimes%20New%20Roman%26quot%3B%26gt%3BUserId%2C%20firstName%2C%20lastName%2C%20nickName_o%2C%20age%2C%20gender%2C%20email%2C%20passwordhash%2C%26amp%3Bnbsp%3B%26lt%3B%2Ffont%26gt%3B%26lt%3Bspan%20style%3D%26quot%3Bcolor%3A%20rgb(0%2C%200%2C%20255)%3B%20font-family%3A%20%26amp%3Bquot%3BTimes%20New%20Roman%26amp%3Bquot%3B%3B%20background-color%3A%20initial%3B%26quot%3B%26gt%3BAvatar%2C%20Image_o%2C%20About_Me_o%26lt%3B%2Fspan%26gt%3B%26lt%3B%2Fp%26gt%3B%22%20style%3D%22text%3Bhtml%3D1%3BstrokeColor%3Dnone%3BfillColor%3Dnone%3Bspacing%3D5%3BspacingTop%3D-20%3BwhiteSpace%3Dwrap%3Boverflow%3Dhidden%3Brounded%3D0%3BfontFamily%3DCourier%20New%3BfontColor%3D%23000000%3B%22%20vertex%3D%221%22%20parent%3D%222%22%3E%3CmxGeometry%20x%3D%2210%22%20y%3D%2210%22%20width%3D%22220%22%20height%3D%2280%22%20as%3D%22geometry%22%2F%3E%3C%2FmxCell%3E%3C%2Froot%3E%3C%2FmxGraphModel%3E&lt;/span&gt;&lt;span style=&quot;color: rgba(0, 0, 0, 0); font-family: monospace; font-size: 0px;&quot;&gt;%3CmxGraphModel%3E%3Croot%3E%3CmxCell%20id%3D%220%22%2F%3E%3CmxCell%20id%3D%221%22%20parent%3D%220%22%2F%3E%3CmxCell%20id%3D%222%22%20value%3D%22%22%20style%3D%22group%22%20vertex%3D%221%22%20connectable%3D%220%22%20parent%3D%221%22%3E%3CmxGeometry%20x%3D%22410%22%20y%3D%22150%22%20width%3D%22240%22%20height%3D%22110%22%20as%3D%22geometry%22%2F%3E%3C%2FmxCell%3E%3CmxCell%20id%3D%223%22%20value%3D%22%22%20style%3D%22verticalLabelPosition%3Dbottom%3BverticalAlign%3Dtop%3Bhtml%3D1%3Bshape%3Dmxgraph.basic.patternFillRect%3BfillStyle%3Dhor%3Bstep%3D5%3BfillStrokeWidth%3D0.2%3BfillStrokeColor%3D%23dddddd%3BfontFamily%3DCourier%20New%3BwhiteSpace%3Dwrap%3BfontColor%3D%23000000%3Bmovable%3D1%3Bresizable%3D1%3Brotatable%3D1%3Bdeletable%3D1%3Beditable%3D1%3Bconnectable%3D1%3B%22%20vertex%3D%221%22%20parent%3D%222%22%3E%3CmxGeometry%20width%3D%22240%22%20height%3D%22110%22%20as%3D%22geometry%22%2F%3E%3C%2FmxCell%3E%3CmxCell%20id%3D%224%22%20value%3D%22%26lt%3Bh1%20style%3D%26quot%3Bline-height%3A%2020%25%3B%26quot%3B%26gt%3B%26lt%3Bfont%20face%3D%26quot%3BTimes%20New%20Roman%26quot%3B%20style%3D%26quot%3Bfont-size%3A%2018px%3B%26quot%3B%26gt%3BUsers%26lt%3B%2Ffont%26gt%3B%26lt%3B%2Fh1%26gt%3B%26lt%3Bp%26gt%3B%26lt%3Bfont%20face%3D%26quot%3BTimes%20New%20Roman%26quot%3B%26gt%3BUserId%2C%20firstName%2C%20lastName%2C%20nickName_o%2C%20age%2C%20gender%2C%20email%2C%20passwordhash%2C%26amp%3Bnbsp%3B%26lt%3B%2Ffont%26gt%3B%26lt%3Bspan%20style%3D%26quot%3Bcolor%3A%20rgb(0%2C%200%2C%20255)%3B%20font-family%3A%20%26amp%3Bquot%3BTimes%20New%20Roman%26amp%3Bquot%3B%3B%20background-color%3A%20initial%3B%26quot%3B%26gt%3BAvatar%2C%20Image_o%2C%20About_Me_o%26lt%3B%2Fspan%26gt%3B%26lt%3B%2Fp%26gt%3B%22%20style%3D%22text%3Bhtml%3D1%3BstrokeColor%3Dnone%3BfillColor%3Dnone%3Bspacing%3D5%3BspacingTop%3D-20%3BwhiteSpace%3Dwrap%3Boverflow%3Dhidden%3Brounded%3D0%3BfontFamily%3DCourier%20New%3BfontColor%3D%23000000%3B%22%20vertex%3D%221%22%20parent%3D%222%22%3E%3CmxGeometry%20x%3D%2210%22%20y%3D%2210%22%20width%3D%22220%22%20height%3D%2280%22%20as%3D%22geometry%22%2F%3E%3C%2FmxCell%3E%3C%2Froot%3E%3C%2FmxGraphModel%3E&lt;/span&gt;" style="text;html=1;strokeColor=none;fillColor=none;spacing=5;spacingTop=-20;whiteSpace=wrap;overflow=hidden;rounded=0;fontFamily=Courier New;fontColor=#000000;" vertex="1" parent="41">
                    <mxGeometry x="10" y="8.181818181818182" width="220" height="65.45454545454545" as="geometry"/>
                </mxCell>
                <mxCell id="44" value="" style="group" vertex="1" connectable="0" parent="1">
                    <mxGeometry x="410" y="390" width="240" height="120" as="geometry"/>
                </mxCell>
                <mxCell id="45" value="" style="verticalLabelPosition=bottom;verticalAlign=top;html=1;shape=mxgraph.basic.patternFillRect;fillStyle=hor;step=5;fillStrokeWidth=0.2;fillStrokeColor=#dddddd;fontFamily=Courier New;whiteSpace=wrap;fontColor=#000000;movable=1;resizable=1;rotatable=1;deletable=1;editable=1;connectable=1;" vertex="1" parent="44">
                    <mxGeometry width="240" height="120" as="geometry"/>
                </mxCell>
                <mxCell id="46" value="&lt;h1 style=&quot;line-height: 20%;&quot;&gt;&lt;font color=&quot;#0000ff&quot; face=&quot;Times New Roman&quot; style=&quot;font-size: 18px;&quot;&gt;GroupPosts&lt;/font&gt;&lt;/h1&gt;&lt;p style=&quot;line-height: 110%;&quot;&gt;&lt;font face=&quot;Times New Roman&quot; color=&quot;#0000ff&quot;&gt;groupId, groupTitle, postId, authorId, author_firstName, author_LastName, gpTitle, gpContent, cpCategory, gpCreationDate, cookieId, imageGif.&lt;/font&gt;&lt;/p&gt;&lt;span style=&quot;color: rgba(0, 0, 0, 0); font-family: monospace; font-size: 0px;&quot;&gt;%3CmxGraphModel%3E%3Croot%3E%3CmxCell%20id%3D%220%22%2F%3E%3CmxCell%20id%3D%221%22%20parent%3D%220%22%2F%3E%3CmxCell%20id%3D%222%22%20value%3D%22%22%20style%3D%22group%22%20vertex%3D%221%22%20connectable%3D%220%22%20parent%3D%221%22%3E%3CmxGeometry%20x%3D%22410%22%20y%3D%22150%22%20width%3D%22240%22%20height%3D%22110%22%20as%3D%22geometry%22%2F%3E%3C%2FmxCell%3E%3CmxCell%20id%3D%223%22%20value%3D%22%22%20style%3D%22verticalLabelPosition%3Dbottom%3BverticalAlign%3Dtop%3Bhtml%3D1%3Bshape%3Dmxgraph.basic.patternFillRect%3BfillStyle%3Dhor%3Bstep%3D5%3BfillStrokeWidth%3D0.2%3BfillStrokeColor%3D%23dddddd%3BfontFamily%3DCourier%20New%3BwhiteSpace%3Dwrap%3BfontColor%3D%23000000%3Bmovable%3D1%3Bresizable%3D1%3Brotatable%3D1%3Bdeletable%3D1%3Beditable%3D1%3Bconnectable%3D1%3B%22%20vertex%3D%221%22%20parent%3D%222%22%3E%3CmxGeometry%20width%3D%22240%22%20height%3D%22110%22%20as%3D%22geometry%22%2F%3E%3C%2FmxCell%3E%3CmxCell%20id%3D%224%22%20value%3D%22%26lt%3Bh1%20style%3D%26quot%3Bline-height%3A%2020%25%3B%26quot%3B%26gt%3B%26lt%3Bfont%20face%3D%26quot%3BTimes%20New%20Roman%26quot%3B%20style%3D%26quot%3Bfont-size%3A%2018px%3B%26quot%3B%26gt%3BUsers%26lt%3B%2Ffont%26gt%3B%26lt%3B%2Fh1%26gt%3B%26lt%3Bp%26gt%3B%26lt%3Bfont%20face%3D%26quot%3BTimes%20New%20Roman%26quot%3B%26gt%3BUserId%2C%20firstName%2C%20lastName%2C%20nickName_o%2C%20age%2C%20gender%2C%20email%2C%20passwordhash%2C%26amp%3Bnbsp%3B%26lt%3B%2Ffont%26gt%3B%26lt%3Bspan%20style%3D%26quot%3Bcolor%3A%20rgb(0%2C%200%2C%20255)%3B%20font-family%3A%20%26amp%3Bquot%3BTimes%20New%20Roman%26amp%3Bquot%3B%3B%20background-color%3A%20initial%3B%26quot%3B%26gt%3BAvatar%2C%20Image_o%2C%20About_Me_o%26lt%3B%2Fspan%26gt%3B%26lt%3B%2Fp%26gt%3B%22%20style%3D%22text%3Bhtml%3D1%3BstrokeColor%3Dnone%3BfillColor%3Dnone%3Bspacing%3D5%3BspacingTop%3D-20%3BwhiteSpace%3Dwrap%3Boverflow%3Dhidden%3Brounded%3D0%3BfontFamily%3DCourier%20New%3BfontColor%3D%23000000%3B%22%20vertex%3D%221%22%20parent%3D%222%22%3E%3CmxGeometry%20x%3D%2210%22%20y%3D%2210%22%20width%3D%22220%22%20height%3D%2280%22%20as%3D%22geometry%22%2F%3E%3C%2FmxCell%3E%3C%2Froot%3E%3C%2FmxGraphModel%3E&lt;/span&gt;&lt;span style=&quot;color: rgba(0, 0, 0, 0); font-family: monospace; font-size: 0px;&quot;&gt;%3CmxGraphModel%3E%3Croot%3E%3CmxCell%20id%3D%220%22%2F%3E%3CmxCell%20id%3D%221%22%20parent%3D%220%22%2F%3E%3CmxCell%20id%3D%222%22%20value%3D%22%22%20style%3D%22group%22%20vertex%3D%221%22%20connectable%3D%220%22%20parent%3D%221%22%3E%3CmxGeometry%20x%3D%22410%22%20y%3D%22150%22%20width%3D%22240%22%20height%3D%22110%22%20as%3D%22geometry%22%2F%3E%3C%2FmxCell%3E%3CmxCell%20id%3D%223%22%20value%3D%22%22%20style%3D%22verticalLabelPosition%3Dbottom%3BverticalAlign%3Dtop%3Bhtml%3D1%3Bshape%3Dmxgraph.basic.patternFillRect%3BfillStyle%3Dhor%3Bstep%3D5%3BfillStrokeWidth%3D0.2%3BfillStrokeColor%3D%23dddddd%3BfontFamily%3DCourier%20New%3BwhiteSpace%3Dwrap%3BfontColor%3D%23000000%3Bmovable%3D1%3Bresizable%3D1%3Brotatable%3D1%3Bdeletable%3D1%3Beditable%3D1%3Bconnectable%3D1%3B%22%20vertex%3D%221%22%20parent%3D%222%22%3E%3CmxGeometry%20width%3D%22240%22%20height%3D%22110%22%20as%3D%22geometry%22%2F%3E%3C%2FmxCell%3E%3CmxCell%20id%3D%224%22%20value%3D%22%26lt%3Bh1%20style%3D%26quot%3Bline-height%3A%2020%25%3B%26quot%3B%26gt%3B%26lt%3Bfont%20face%3D%26quot%3BTimes%20New%20Roman%26quot%3B%20style%3D%26quot%3Bfont-size%3A%2018px%3B%26quot%3B%26gt%3BUsers%26lt%3B%2Ffont%26gt%3B%26lt%3B%2Fh1%26gt%3B%26lt%3Bp%26gt%3B%26lt%3Bfont%20face%3D%26quot%3BTimes%20New%20Roman%26quot%3B%26gt%3BUserId%2C%20firstName%2C%20lastName%2C%20nickName_o%2C%20age%2C%20gender%2C%20email%2C%20passwordhash%2C%26amp%3Bnbsp%3B%26lt%3B%2Ffont%26gt%3B%26lt%3Bspan%20style%3D%26quot%3Bcolor%3A%20rgb(0%2C%200%2C%20255)%3B%20font-family%3A%20%26amp%3Bquot%3BTimes%20New%20Roman%26amp%3Bquot%3B%3B%20background-color%3A%20initial%3B%26quot%3B%26gt%3BAvatar%2C%20Image_o%2C%20About_Me_o%26lt%3B%2Fspan%26gt%3B%26lt%3B%2Fp%26gt%3B%22%20style%3D%22text%3Bhtml%3D1%3BstrokeColor%3Dnone%3BfillColor%3Dnone%3Bspacing%3D5%3BspacingTop%3D-20%3BwhiteSpace%3Dwrap%3Boverflow%3Dhidden%3Brounded%3D0%3BfontFamily%3DCourier%20New%3BfontColor%3D%23000000%3B%22%20vertex%3D%221%22%20parent%3D%222%22%3E%3CmxGeometry%20x%3D%2210%22%20y%3D%2210%22%20width%3D%22220%22%20height%3D%2280%22%20as%3D%22geometry%22%2F%3E%3C%2FmxCell%3E%3C%2Froot%3E%3C%2FmxGraphModel%3E&lt;/span&gt;" style="text;html=1;strokeColor=none;fillColor=none;spacing=5;spacingTop=-20;whiteSpace=wrap;overflow=hidden;rounded=0;fontFamily=Courier New;fontColor=#000000;" vertex="1" parent="44">
                    <mxGeometry x="10" y="10" width="220" height="90" as="geometry"/>
                </mxCell>
                <mxCell id="47" value="" style="group" vertex="1" connectable="0" parent="1">
                    <mxGeometry x="410" y="530" width="240" height="110" as="geometry"/>
                </mxCell>
                <mxCell id="48" value="" style="verticalLabelPosition=bottom;verticalAlign=top;html=1;shape=mxgraph.basic.patternFillRect;fillStyle=hor;step=5;fillStrokeWidth=0.2;fillStrokeColor=#dddddd;fontFamily=Courier New;whiteSpace=wrap;fontColor=#000000;movable=1;resizable=1;rotatable=1;deletable=1;editable=1;connectable=1;" vertex="1" parent="47">
                    <mxGeometry width="240" height="110.00000000000001" as="geometry"/>
                </mxCell>
                <mxCell id="49" value="&lt;h1 style=&quot;line-height: 20%;&quot;&gt;&lt;font color=&quot;#0000ff&quot; face=&quot;Times New Roman&quot; style=&quot;font-size: 18px;&quot;&gt;GroupComments&lt;/font&gt;&lt;/h1&gt;&lt;p style=&quot;line-height: 110%;&quot;&gt;&lt;font face=&quot;Times New Roman&quot; color=&quot;#0000ff&quot;&gt;groupId, groupTitle, postId, commentId, gcAuthorId, author_firstName, author_LastName, gcContent, gcCreationDate&lt;/font&gt;&lt;/p&gt;&lt;span style=&quot;color: rgba(0, 0, 0, 0); font-family: monospace; font-size: 0px;&quot;&gt;%3CmxGraphModel%3E%3Croot%3E%3CmxCell%20id%3D%220%22%2F%3E%3CmxCell%20id%3D%221%22%20parent%3D%220%22%2F%3E%3CmxCell%20id%3D%222%22%20value%3D%22%22%20style%3D%22group%22%20vertex%3D%221%22%20connectable%3D%220%22%20parent%3D%221%22%3E%3CmxGeometry%20x%3D%22410%22%20y%3D%22150%22%20width%3D%22240%22%20height%3D%22110%22%20as%3D%22geometry%22%2F%3E%3C%2FmxCell%3E%3CmxCell%20id%3D%223%22%20value%3D%22%22%20style%3D%22verticalLabelPosition%3Dbottom%3BverticalAlign%3Dtop%3Bhtml%3D1%3Bshape%3Dmxgraph.basic.patternFillRect%3BfillStyle%3Dhor%3Bstep%3D5%3BfillStrokeWidth%3D0.2%3BfillStrokeColor%3D%23dddddd%3BfontFamily%3DCourier%20New%3BwhiteSpace%3Dwrap%3BfontColor%3D%23000000%3Bmovable%3D1%3Bresizable%3D1%3Brotatable%3D1%3Bdeletable%3D1%3Beditable%3D1%3Bconnectable%3D1%3B%22%20vertex%3D%221%22%20parent%3D%222%22%3E%3CmxGeometry%20width%3D%22240%22%20height%3D%22110%22%20as%3D%22geometry%22%2F%3E%3C%2FmxCell%3E%3CmxCell%20id%3D%224%22%20value%3D%22%26lt%3Bh1%20style%3D%26quot%3Bline-height%3A%2020%25%3B%26quot%3B%26gt%3B%26lt%3Bfont%20face%3D%26quot%3BTimes%20New%20Roman%26quot%3B%20style%3D%26quot%3Bfont-size%3A%2018px%3B%26quot%3B%26gt%3BUsers%26lt%3B%2Ffont%26gt%3B%26lt%3B%2Fh1%26gt%3B%26lt%3Bp%26gt%3B%26lt%3Bfont%20face%3D%26quot%3BTimes%20New%20Roman%26quot%3B%26gt%3BUserId%2C%20firstName%2C%20lastName%2C%20nickName_o%2C%20age%2C%20gender%2C%20email%2C%20passwordhash%2C%26amp%3Bnbsp%3B%26lt%3B%2Ffont%26gt%3B%26lt%3Bspan%20style%3D%26quot%3Bcolor%3A%20rgb(0%2C%200%2C%20255)%3B%20font-family%3A%20%26amp%3Bquot%3BTimes%20New%20Roman%26amp%3Bquot%3B%3B%20background-color%3A%20initial%3B%26quot%3B%26gt%3BAvatar%2C%20Image_o%2C%20About_Me_o%26lt%3B%2Fspan%26gt%3B%26lt%3B%2Fp%26gt%3B%22%20style%3D%22text%3Bhtml%3D1%3BstrokeColor%3Dnone%3BfillColor%3Dnone%3Bspacing%3D5%3BspacingTop%3D-20%3BwhiteSpace%3Dwrap%3Boverflow%3Dhidden%3Brounded%3D0%3BfontFamily%3DCourier%20New%3BfontColor%3D%23000000%3B%22%20vertex%3D%221%22%20parent%3D%222%22%3E%3CmxGeometry%20x%3D%2210%22%20y%3D%2210%22%20width%3D%22220%22%20height%3D%2280%22%20as%3D%22geometry%22%2F%3E%3C%2FmxCell%3E%3C%2Froot%3E%3C%2FmxGraphModel%3E&lt;/span&gt;&lt;span style=&quot;color: rgba(0, 0, 0, 0); font-family: monospace; font-size: 0px;&quot;&gt;%3CmxGraphModel%3E%3Croot%3E%3CmxCell%20id%3D%220%22%2F%3E%3CmxCell%20id%3D%221%22%20parent%3D%220%22%2F%3E%3CmxCell%20id%3D%222%22%20value%3D%22%22%20style%3D%22group%22%20vertex%3D%221%22%20connectable%3D%220%22%20parent%3D%221%22%3E%3CmxGeometry%20x%3D%22410%22%20y%3D%22150%22%20width%3D%22240%22%20height%3D%22110%22%20as%3D%22geometry%22%2F%3E%3C%2FmxCell%3E%3CmxCell%20id%3D%223%22%20value%3D%22%22%20style%3D%22verticalLabelPosition%3Dbottom%3BverticalAlign%3Dtop%3Bhtml%3D1%3Bshape%3Dmxgraph.basic.patternFillRect%3BfillStyle%3Dhor%3Bstep%3D5%3BfillStrokeWidth%3D0.2%3BfillStrokeColor%3D%23dddddd%3BfontFamily%3DCourier%20New%3BwhiteSpace%3Dwrap%3BfontColor%3D%23000000%3Bmovable%3D1%3Bresizable%3D1%3Brotatable%3D1%3Bdeletable%3D1%3Beditable%3D1%3Bconnectable%3D1%3B%22%20vertex%3D%221%22%20parent%3D%222%22%3E%3CmxGeometry%20width%3D%22240%22%20height%3D%22110%22%20as%3D%22geometry%22%2F%3E%3C%2FmxCell%3E%3CmxCell%20id%3D%224%22%20value%3D%22%26lt%3Bh1%20style%3D%26quot%3Bline-height%3A%2020%25%3B%26quot%3B%26gt%3B%26lt%3Bfont%20face%3D%26quot%3BTimes%20New%20Roman%26quot%3B%20style%3D%26quot%3Bfont-size%3A%2018px%3B%26quot%3B%26gt%3BUsers%26lt%3B%2Ffont%26gt%3B%26lt%3B%2Fh1%26gt%3B%26lt%3Bp%26gt%3B%26lt%3Bfont%20face%3D%26quot%3BTimes%20New%20Roman%26quot%3B%26gt%3BUserId%2C%20firstName%2C%20lastName%2C%20nickName_o%2C%20age%2C%20gender%2C%20email%2C%20passwordhash%2C%26amp%3Bnbsp%3B%26lt%3B%2Ffont%26gt%3B%26lt%3Bspan%20style%3D%26quot%3Bcolor%3A%20rgb(0%2C%200%2C%20255)%3B%20font-family%3A%20%26amp%3Bquot%3BTimes%20New%20Roman%26amp%3Bquot%3B%3B%20background-color%3A%20initial%3B%26quot%3B%26gt%3BAvatar%2C%20Image_o%2C%20About_Me_o%26lt%3B%2Fspan%26gt%3B%26lt%3B%2Fp%26gt%3B%22%20style%3D%22text%3Bhtml%3D1%3BstrokeColor%3Dnone%3BfillColor%3Dnone%3Bspacing%3D5%3BspacingTop%3D-20%3BwhiteSpace%3Dwrap%3Boverflow%3Dhidden%3Brounded%3D0%3BfontFamily%3DCourier%20New%3BfontColor%3D%23000000%3B%22%20vertex%3D%221%22%20parent%3D%222%22%3E%3CmxGeometry%20x%3D%2210%22%20y%3D%2210%22%20width%3D%22220%22%20height%3D%2280%22%20as%3D%22geometry%22%2F%3E%3C%2FmxCell%3E%3C%2Froot%3E%3C%2FmxGraphModel%3E&lt;/span&gt;" style="text;html=1;strokeColor=none;fillColor=none;spacing=5;spacingTop=-20;whiteSpace=wrap;overflow=hidden;rounded=0;fontFamily=Courier New;fontColor=#000000;" vertex="1" parent="47">
                    <mxGeometry x="10" y="9.166666666666668" width="220" height="82.5" as="geometry"/>
                </mxCell>
                <mxCell id="50" value="" style="group" vertex="1" connectable="0" parent="1">
                    <mxGeometry x="410" y="660" width="240" height="80" as="geometry"/>
                </mxCell>
                <mxCell id="51" value="" style="verticalLabelPosition=bottom;verticalAlign=top;html=1;shape=mxgraph.basic.patternFillRect;fillStyle=hor;step=5;fillStrokeWidth=0.2;fillStrokeColor=#dddddd;fontFamily=Courier New;whiteSpace=wrap;fontColor=#000000;movable=1;resizable=1;rotatable=1;deletable=1;editable=1;connectable=1;" vertex="1" parent="50">
                    <mxGeometry width="240" height="80.00000000000001" as="geometry"/>
                </mxCell>
                <mxCell id="52" value="&lt;h1 style=&quot;line-height: 20%;&quot;&gt;&lt;font color=&quot;#0000ff&quot; face=&quot;Times New Roman&quot; style=&quot;font-size: 18px;&quot;&gt;GroupChat&lt;/font&gt;&lt;/h1&gt;&lt;p style=&quot;line-height: 110%;&quot;&gt;&lt;font face=&quot;Times New Roman&quot; color=&quot;#0000ff&quot;&gt;groupId, groupTitle, gChatSender, gChatId, chatCreationDate&lt;/font&gt;&lt;/p&gt;&lt;span style=&quot;color: rgba(0, 0, 0, 0); font-family: monospace; font-size: 0px;&quot;&gt;%3CmxGraphModel%3E%3Croot%3E%3CmxCell%20id%3D%220%22%2F%3E%3CmxCell%20id%3D%221%22%20parent%3D%220%22%2F%3E%3CmxCell%20id%3D%222%22%20value%3D%22%22%20style%3D%22group%22%20vertex%3D%221%22%20connectable%3D%220%22%20parent%3D%221%22%3E%3CmxGeometry%20x%3D%22410%22%20y%3D%22150%22%20width%3D%22240%22%20height%3D%22110%22%20as%3D%22geometry%22%2F%3E%3C%2FmxCell%3E%3CmxCell%20id%3D%223%22%20value%3D%22%22%20style%3D%22verticalLabelPosition%3Dbottom%3BverticalAlign%3Dtop%3Bhtml%3D1%3Bshape%3Dmxgraph.basic.patternFillRect%3BfillStyle%3Dhor%3Bstep%3D5%3BfillStrokeWidth%3D0.2%3BfillStrokeColor%3D%23dddddd%3BfontFamily%3DCourier%20New%3BwhiteSpace%3Dwrap%3BfontColor%3D%23000000%3Bmovable%3D1%3Bresizable%3D1%3Brotatable%3D1%3Bdeletable%3D1%3Beditable%3D1%3Bconnectable%3D1%3B%22%20vertex%3D%221%22%20parent%3D%222%22%3E%3CmxGeometry%20width%3D%22240%22%20height%3D%22110%22%20as%3D%22geometry%22%2F%3E%3C%2FmxCell%3E%3CmxCell%20id%3D%224%22%20value%3D%22%26lt%3Bh1%20style%3D%26quot%3Bline-height%3A%2020%25%3B%26quot%3B%26gt%3B%26lt%3Bfont%20face%3D%26quot%3BTimes%20New%20Roman%26quot%3B%20style%3D%26quot%3Bfont-size%3A%2018px%3B%26quot%3B%26gt%3BUsers%26lt%3B%2Ffont%26gt%3B%26lt%3B%2Fh1%26gt%3B%26lt%3Bp%26gt%3B%26lt%3Bfont%20face%3D%26quot%3BTimes%20New%20Roman%26quot%3B%26gt%3BUserId%2C%20firstName%2C%20lastName%2C%20nickName_o%2C%20age%2C%20gender%2C%20email%2C%20passwordhash%2C%26amp%3Bnbsp%3B%26lt%3B%2Ffont%26gt%3B%26lt%3Bspan%20style%3D%26quot%3Bcolor%3A%20rgb(0%2C%200%2C%20255)%3B%20font-family%3A%20%26amp%3Bquot%3BTimes%20New%20Roman%26amp%3Bquot%3B%3B%20background-color%3A%20initial%3B%26quot%3B%26gt%3BAvatar%2C%20Image_o%2C%20About_Me_o%26lt%3B%2Fspan%26gt%3B%26lt%3B%2Fp%26gt%3B%22%20style%3D%22text%3Bhtml%3D1%3BstrokeColor%3Dnone%3BfillColor%3Dnone%3Bspacing%3D5%3BspacingTop%3D-20%3BwhiteSpace%3Dwrap%3Boverflow%3Dhidden%3Brounded%3D0%3BfontFamily%3DCourier%20New%3BfontColor%3D%23000000%3B%22%20vertex%3D%221%22%20parent%3D%222%22%3E%3CmxGeometry%20x%3D%2210%22%20y%3D%2210%22%20width%3D%22220%22%20height%3D%2280%22%20as%3D%22geometry%22%2F%3E%3C%2FmxCell%3E%3C%2Froot%3E%3C%2FmxGraphModel%3E&lt;/span&gt;&lt;span style=&quot;color: rgba(0, 0, 0, 0); font-family: monospace; font-size: 0px;&quot;&gt;%3CmxGraphModel%3E%3Croot%3E%3CmxCell%20id%3D%220%22%2F%3E%3CmxCell%20id%3D%221%22%20parent%3D%220%22%2F%3E%3CmxCell%20id%3D%222%22%20value%3D%22%22%20style%3D%22group%22%20vertex%3D%221%22%20connectable%3D%220%22%20parent%3D%221%22%3E%3CmxGeometry%20x%3D%22410%22%20y%3D%22150%22%20width%3D%22240%22%20height%3D%22110%22%20as%3D%22geometry%22%2F%3E%3C%2FmxCell%3E%3CmxCell%20id%3D%223%22%20value%3D%22%22%20style%3D%22verticalLabelPosition%3Dbottom%3BverticalAlign%3Dtop%3Bhtml%3D1%3Bshape%3Dmxgraph.basic.patternFillRect%3BfillStyle%3Dhor%3Bstep%3D5%3BfillStrokeWidth%3D0.2%3BfillStrokeColor%3D%23dddddd%3BfontFamily%3DCourier%20New%3BwhiteSpace%3Dwrap%3BfontColor%3D%23000000%3Bmovable%3D1%3Bresizable%3D1%3Brotatable%3D1%3Bdeletable%3D1%3Beditable%3D1%3Bconnectable%3D1%3B%22%20vertex%3D%221%22%20parent%3D%222%22%3E%3CmxGeometry%20width%3D%22240%22%20height%3D%22110%22%20as%3D%22geometry%22%2F%3E%3C%2FmxCell%3E%3CmxCell%20id%3D%224%22%20value%3D%22%26lt%3Bh1%20style%3D%26quot%3Bline-height%3A%2020%25%3B%26quot%3B%26gt%3B%26lt%3Bfont%20face%3D%26quot%3BTimes%20New%20Roman%26quot%3B%20style%3D%26quot%3Bfont-size%3A%2018px%3B%26quot%3B%26gt%3BUsers%26lt%3B%2Ffont%26gt%3B%26lt%3B%2Fh1%26gt%3B%26lt%3Bp%26gt%3B%26lt%3Bfont%20face%3D%26quot%3BTimes%20New%20Roman%26quot%3B%26gt%3BUserId%2C%20firstName%2C%20lastName%2C%20nickName_o%2C%20age%2C%20gender%2C%20email%2C%20passwordhash%2C%26amp%3Bnbsp%3B%26lt%3B%2Ffont%26gt%3B%26lt%3Bspan%20style%3D%26quot%3Bcolor%3A%20rgb(0%2C%200%2C%20255)%3B%20font-family%3A%20%26amp%3Bquot%3BTimes%20New%20Roman%26amp%3Bquot%3B%3B%20background-color%3A%20initial%3B%26quot%3B%26gt%3BAvatar%2C%20Image_o%2C%20About_Me_o%26lt%3B%2Fspan%26gt%3B%26lt%3B%2Fp%26gt%3B%22%20style%3D%22text%3Bhtml%3D1%3BstrokeColor%3Dnone%3BfillColor%3Dnone%3Bspacing%3D5%3BspacingTop%3D-20%3BwhiteSpace%3Dwrap%3Boverflow%3Dhidden%3Brounded%3D0%3BfontFamily%3DCourier%20New%3BfontColor%3D%23000000%3B%22%20vertex%3D%221%22%20parent%3D%222%22%3E%3CmxGeometry%20x%3D%2210%22%20y%3D%2210%22%20width%3D%22220%22%20height%3D%2280%22%20as%3D%22geometry%22%2F%3E%3C%2FmxCell%3E%3C%2Froot%3E%3C%2FmxGraphModel%3E&lt;/span&gt;" style="text;html=1;strokeColor=none;fillColor=none;spacing=5;spacingTop=-20;whiteSpace=wrap;overflow=hidden;rounded=0;fontFamily=Courier New;fontColor=#000000;" vertex="1" parent="50">
                    <mxGeometry x="10" y="6.666666666666668" width="220" height="60" as="geometry"/>
                </mxCell>
                <mxCell id="53" value="" style="group" vertex="1" connectable="0" parent="1">
                    <mxGeometry x="410" y="760" width="250" height="80" as="geometry"/>
                </mxCell>
                <mxCell id="54" value="" style="verticalLabelPosition=bottom;verticalAlign=top;html=1;shape=mxgraph.basic.patternFillRect;fillStyle=hor;step=5;fillStrokeWidth=0.2;fillStrokeColor=#dddddd;fontFamily=Courier New;whiteSpace=wrap;fontColor=#000000;movable=1;resizable=1;rotatable=1;deletable=1;editable=1;connectable=1;" vertex="1" parent="53">
                    <mxGeometry width="240" height="80.00000000000001" as="geometry"/>
                </mxCell>
                <mxCell id="55" value="&lt;h1 style=&quot;line-height: 20%;&quot;&gt;&lt;font color=&quot;#0000ff&quot; face=&quot;Times New Roman&quot; style=&quot;font-size: 18px;&quot;&gt;GroupEvent&lt;/font&gt;&lt;/h1&gt;&lt;p style=&quot;line-height: 110%;&quot;&gt;&lt;font face=&quot;Times New Roman&quot; color=&quot;#0000ff&quot;&gt;groupId, groupTitle, eventId, eventTitle, eventDescription, eDayTime, going, notGoing.&lt;/font&gt;&lt;/p&gt;&lt;span style=&quot;color: rgba(0, 0, 0, 0); font-family: monospace; font-size: 0px;&quot;&gt;%3CmxGraphModel%3E%3Croot%3E%3CmxCell%20id%3D%220%22%2F%3E%3CmxCell%20id%3D%221%22%20parent%3D%220%22%2F%3E%3CmxCell%20id%3D%222%22%20value%3D%22%22%20style%3D%22group%22%20vertex%3D%221%22%20connectable%3D%220%22%20parent%3D%221%22%3E%3CmxGeometry%20x%3D%22410%22%20y%3D%22150%22%20width%3D%22240%22%20height%3D%22110%22%20as%3D%22geometry%22%2F%3E%3C%2FmxCell%3E%3CmxCell%20id%3D%223%22%20value%3D%22%22%20style%3D%22verticalLabelPosition%3Dbottom%3BverticalAlign%3Dtop%3Bhtml%3D1%3Bshape%3Dmxgraph.basic.patternFillRect%3BfillStyle%3Dhor%3Bstep%3D5%3BfillStrokeWidth%3D0.2%3BfillStrokeColor%3D%23dddddd%3BfontFamily%3DCourier%20New%3BwhiteSpace%3Dwrap%3BfontColor%3D%23000000%3Bmovable%3D1%3Bresizable%3D1%3Brotatable%3D1%3Bdeletable%3D1%3Beditable%3D1%3Bconnectable%3D1%3B%22%20vertex%3D%221%22%20parent%3D%222%22%3E%3CmxGeometry%20width%3D%22240%22%20height%3D%22110%22%20as%3D%22geometry%22%2F%3E%3C%2FmxCell%3E%3CmxCell%20id%3D%224%22%20value%3D%22%26lt%3Bh1%20style%3D%26quot%3Bline-height%3A%2020%25%3B%26quot%3B%26gt%3B%26lt%3Bfont%20face%3D%26quot%3BTimes%20New%20Roman%26quot%3B%20style%3D%26quot%3Bfont-size%3A%2018px%3B%26quot%3B%26gt%3BUsers%26lt%3B%2Ffont%26gt%3B%26lt%3B%2Fh1%26gt%3B%26lt%3Bp%26gt%3B%26lt%3Bfont%20face%3D%26quot%3BTimes%20New%20Roman%26quot%3B%26gt%3BUserId%2C%20firstName%2C%20lastName%2C%20nickName_o%2C%20age%2C%20gender%2C%20email%2C%20passwordhash%2C%26amp%3Bnbsp%3B%26lt%3B%2Ffont%26gt%3B%26lt%3Bspan%20style%3D%26quot%3Bcolor%3A%20rgb(0%2C%200%2C%20255)%3B%20font-family%3A%20%26amp%3Bquot%3BTimes%20New%20Roman%26amp%3Bquot%3B%3B%20background-color%3A%20initial%3B%26quot%3B%26gt%3BAvatar%2C%20Image_o%2C%20About_Me_o%26lt%3B%2Fspan%26gt%3B%26lt%3B%2Fp%26gt%3B%22%20style%3D%22text%3Bhtml%3D1%3BstrokeColor%3Dnone%3BfillColor%3Dnone%3Bspacing%3D5%3BspacingTop%3D-20%3BwhiteSpace%3Dwrap%3Boverflow%3Dhidden%3Brounded%3D0%3BfontFamily%3DCourier%20New%3BfontColor%3D%23000000%3B%22%20vertex%3D%221%22%20parent%3D%222%22%3E%3CmxGeometry%20x%3D%2210%22%20y%3D%2210%22%20width%3D%22220%22%20height%3D%2280%22%20as%3D%22geometry%22%2F%3E%3C%2FmxCell%3E%3C%2Froot%3E%3C%2FmxGraphModel%3E&lt;/span&gt;&lt;span style=&quot;color: rgba(0, 0, 0, 0); font-family: monospace; font-size: 0px;&quot;&gt;%3CmxGraphModel%3E%3Croot%3E%3CmxCell%20id%3D%220%22%2F%3E%3CmxCell%20id%3D%221%22%20parent%3D%220%22%2F%3E%3CmxCell%20id%3D%222%22%20value%3D%22%22%20style%3D%22group%22%20vertex%3D%221%22%20connectable%3D%220%22%20parent%3D%221%22%3E%3CmxGeometry%20x%3D%22410%22%20y%3D%22150%22%20width%3D%22240%22%20height%3D%22110%22%20as%3D%22geometry%22%2F%3E%3C%2FmxCell%3E%3CmxCell%20id%3D%223%22%20value%3D%22%22%20style%3D%22verticalLabelPosition%3Dbottom%3BverticalAlign%3Dtop%3Bhtml%3D1%3Bshape%3Dmxgraph.basic.patternFillRect%3BfillStyle%3Dhor%3Bstep%3D5%3BfillStrokeWidth%3D0.2%3BfillStrokeColor%3D%23dddddd%3BfontFamily%3DCourier%20New%3BwhiteSpace%3Dwrap%3BfontColor%3D%23000000%3Bmovable%3D1%3Bresizable%3D1%3Brotatable%3D1%3Bdeletable%3D1%3Beditable%3D1%3Bconnectable%3D1%3B%22%20vertex%3D%221%22%20parent%3D%222%22%3E%3CmxGeometry%20width%3D%22240%22%20height%3D%22110%22%20as%3D%22geometry%22%2F%3E%3C%2FmxCell%3E%3CmxCell%20id%3D%224%22%20value%3D%22%26lt%3Bh1%20style%3D%26quot%3Bline-height%3A%2020%25%3B%26quot%3B%26gt%3B%26lt%3Bfont%20face%3D%26quot%3BTimes%20New%20Roman%26quot%3B%20style%3D%26quot%3Bfont-size%3A%2018px%3B%26quot%3B%26gt%3BUsers%26lt%3B%2Ffont%26gt%3B%26lt%3B%2Fh1%26gt%3B%26lt%3Bp%26gt%3B%26lt%3Bfont%20face%3D%26quot%3BTimes%20New%20Roman%26quot%3B%26gt%3BUserId%2C%20firstName%2C%20lastName%2C%20nickName_o%2C%20age%2C%20gender%2C%20email%2C%20passwordhash%2C%26amp%3Bnbsp%3B%26lt%3B%2Ffont%26gt%3B%26lt%3Bspan%20style%3D%26quot%3Bcolor%3A%20rgb(0%2C%200%2C%20255)%3B%20font-family%3A%20%26amp%3Bquot%3BTimes%20New%20Roman%26amp%3Bquot%3B%3B%20background-color%3A%20initial%3B%26quot%3B%26gt%3BAvatar%2C%20Image_o%2C%20About_Me_o%26lt%3B%2Fspan%26gt%3B%26lt%3B%2Fp%26gt%3B%22%20style%3D%22text%3Bhtml%3D1%3BstrokeColor%3Dnone%3BfillColor%3Dnone%3Bspacing%3D5%3BspacingTop%3D-20%3BwhiteSpace%3Dwrap%3Boverflow%3Dhidden%3Brounded%3D0%3BfontFamily%3DCourier%20New%3BfontColor%3D%23000000%3B%22%20vertex%3D%221%22%20parent%3D%222%22%3E%3CmxGeometry%20x%3D%2210%22%20y%3D%2210%22%20width%3D%22220%22%20height%3D%2280%22%20as%3D%22geometry%22%2F%3E%3C%2FmxCell%3E%3C%2Froot%3E%3C%2FmxGraphModel%3E&lt;/span&gt;" style="text;html=1;strokeColor=none;fillColor=none;spacing=5;spacingTop=-20;whiteSpace=wrap;overflow=hidden;rounded=0;fontFamily=Courier New;fontColor=#000000;" vertex="1" parent="53">
                    <mxGeometry x="10" y="6.67" width="240" height="60" as="geometry"/>
                </mxCell>
                <mxCell id="58" value="&lt;h1 style=&quot;line-height: 40%;&quot;&gt;&lt;font style=&quot;background-color: initial; font-weight: normal; font-size: 17px;&quot;&gt;Legend:&lt;/font&gt;&lt;font style=&quot;background-color: initial; font-weight: normal; font-size: 13px;&quot;&gt;&amp;nbsp; &amp;nbsp; &amp;nbsp; &amp;nbsp; &amp;nbsp; &amp;nbsp; &amp;nbsp; &amp;nbsp; &amp;nbsp; &amp;nbsp; &amp;nbsp; &amp;nbsp; &amp;nbsp; &amp;nbsp; &amp;nbsp; &amp;nbsp; &amp;nbsp; &amp;nbsp; &amp;nbsp; &amp;nbsp; &amp;nbsp; &amp;nbsp; &amp;nbsp; &amp;nbsp; &amp;nbsp; &amp;nbsp; &amp;nbsp; &amp;nbsp; &amp;nbsp; &amp;nbsp; &amp;nbsp; &amp;nbsp; &amp;nbsp; &amp;nbsp; &amp;nbsp; &amp;nbsp; &amp;nbsp; &amp;nbsp;Each square represents a database table. Black fields are legacy from 'Real-time-forum'. Blue fields are new to 'Social-Network'. Fields with suffix '_o' are option&lt;/font&gt;&lt;span style=&quot;background-color: initial; font-weight: normal; font-size: 14px;&quot;&gt;al.&lt;/span&gt;&lt;/h1&gt;" style="text;html=1;strokeColor=none;fillColor=none;spacing=5;spacingTop=-20;whiteSpace=wrap;overflow=hidden;rounded=0;fontFamily=Times New Roman;fontSize=15;fontColor=#000000;" vertex="1" parent="1">
                    <mxGeometry x="700" y="730" width="320" height="110" as="geometry"/>
                </mxCell>
                <mxCell id="59" value="&lt;font color=&quot;#000000&quot; style=&quot;font-size: 15px;&quot;&gt;Helena Sedmak, May 2023&lt;/font&gt;" style="text;html=1;strokeColor=none;fillColor=none;align=center;verticalAlign=middle;whiteSpace=wrap;rounded=0;fontFamily=Times New Roman;fontSize=15;fontColor=#0000FF;" vertex="1" parent="1">
                    <mxGeometry x="850" y="10" width="180" height="30" as="geometry"/>
                </mxCell>
            </root>
        </mxGraphModel>
    </diagram>
</mxfile>